<svg xmlns="http://www.w3.org/2000/svg"  viewBox="0 0 80 80" width="50px" height="50px"><path fill="#f78f8f" d="M8.505,77.5c0.267-12.729,10.704-23,23.495-23h16c12.791,0,23.228,10.271,23.495,23H8.505z"/><path fill="#c74343" d="M48,55c12.347,0,22.453,9.78,22.979,22L9.021,77C9.547,64.78,19.653,55,32,55H48 M48,54H32 C18.745,54,8,64.745,8,78v0h64v0C72,64.745,61.255,54,48,54L48,54z"/><path fill="#f78f8f" d="M40,62.566l-9.687,6.091l-3.493-13.556C28.574,54.702,30.314,54.5,32,54.5h16 c1.686,0,3.425,0.202,5.179,0.601l-3.493,13.556L40,62.566z"/><path fill="#c74343" d="M48,55c1.488,0,3.019,0.161,4.565,0.48l-3.192,12.389l-8.841-5.559L40,61.976l-0.532,0.335 l-8.841,5.559L27.434,55.48C28.981,55.161,30.512,55,32,55H48 M48,54H32c-2,0-3.933,0.272-5.791,0.733L30,69.444l10-6.287 l10,6.287l3.791-14.712C51.933,54.271,50,54,48,54L48,54z"/><path fill="#deb974" d="M30.5 54.884L30.5 44.5 49.5 44.5 49.5 54.884 40 62.539z"/><path fill="#967a44" d="M49,45v9.645l-9,7.252l-9-7.252V45H49 M50,44H30v11.124l10,8.057l10-8.057V44L50,44z"/><g><path fill="#deb974" d="M54.286,38.928c-2.875,0-5.214-2.339-5.214-5.214s2.339-5.214,5.214-5.214 c3.704,0,5.214,0.959,5.214,3.31C59.5,34.621,57.164,38.928,54.286,38.928z M25.714,38.928c-2.878,0-5.214-4.308-5.214-7.119 c0-2.351,1.511-3.31,5.214-3.31c2.875,0,5.214,2.339,5.214,5.214S28.589,38.928,25.714,38.928z"/><path fill="#967a44" d="M54.286,29C58.211,29,59,30.075,59,31.809c0,2.829-2.331,6.619-4.714,6.619 c-2.599,0-4.714-2.115-4.714-4.714S51.686,29,54.286,29 M25.714,29c2.599,0,4.714,2.115,4.714,4.714s-2.115,4.714-4.714,4.714 c-2.384,0-4.714-3.79-4.714-6.619C21,30.075,21.789,29,25.714,29 M54.286,28c-3.156,0-5.714,2.558-5.714,5.714 c0,3.156,2.558,5.714,5.714,5.714c3.156,0,5.714-4.463,5.714-7.619C60,28.653,57.442,28,54.286,28L54.286,28z M25.714,28 C22.558,28,20,28.653,20,31.809c0,3.156,2.558,7.619,5.714,7.619c3.156,0,5.714-2.558,5.714-5.714 C31.429,30.558,28.87,28,25.714,28L25.714,28z"/></g><g><path fill="#f5ce85" d="M40,53.5c-1.343,0-2.639-0.495-3.648-1.393l-0.091-0.081l-0.117-0.03 C29.288,50.237,24.5,44.07,24.5,37V18.403c0-3.929,3.196-7.125,7.125-7.125h16.749c3.929,0,7.125,3.196,7.125,7.125V37 c0,7.07-4.788,13.237-11.644,14.996l-0.117,0.03l-0.09,0.081C42.638,53.005,41.342,53.5,40,53.5z"/><path fill="#967a44" d="M48.375,11.778c3.653,0,6.625,2.972,6.625,6.625V37c0,6.842-4.633,12.81-11.268,14.512l-0.235,0.06 l-0.181,0.161C42.398,52.55,41.22,53,40,53c-1.22,0-2.398-0.45-3.316-1.267l-0.181-0.161l-0.235-0.06 C29.633,49.81,25,43.842,25,37V18.403c0-3.653,2.972-6.625,6.625-6.625H48.375 M48.375,10.778H31.625 c-4.211,0-7.625,3.414-7.625,7.625V37c0,7.46,5.112,13.708,12.019,15.48C37.079,53.423,38.47,54,40,54h0 c1.53,0,2.921-0.577,3.981-1.52C50.888,50.708,56,44.459,56,37V18.403C56,14.192,52.586,10.778,48.375,10.778L48.375,10.778z"/></g><g><path fill="#a6714e" d="M55.5,35.5V28c0-7.02-6.83-10.764-7.121-10.92l-0.351-0.188l-0.262,0.3 c-0.053,0.061-5.36,6.021-14.466,6.021c-3.778,0-8.8,0.704-8.8,6.787v5.5h-0.181c-0.686-1.507-3.819-8.734-3.819-14.877 C20.5,9.783,27.935,2.5,39,2.5c8.037,0,10.441,5.461,10.539,5.694l0.129,0.305L50,8.5c3.528,0,9.5,2.428,9.5,11.53 c0,5.62-3.163,13.793-3.836,15.47H55.5z"/><path fill="#7a4f34" d="M39,3c7.678,0,9.985,5.17,10.077,5.385L49.334,9H50c0.921,0,9,0.31,9,11.03 c0,4.238-1.84,9.983-3,13.181V28c0-7.316-7.083-11.199-7.384-11.361l-0.704-0.377l-0.524,0.603 c-0.051,0.058-5.187,5.849-14.088,5.849c-2.3,0-9.3,0-9.3,7.286v3.475c-1.152-2.865-3-8.188-3-12.852C21,10.082,28.234,3,39,3 M39,2C27.362,2,20,9.962,20,20.622C20,27.684,24,36,24,36h1c0,0,0-4.057,0-6c0-5.336,4.048-6.286,8.3-6.286 c9.46,0,14.843-6.193,14.843-6.193S55,21.198,55,28c0,2.137,0,8,0,8h1c0,0,4-9.535,4-15.97C60,10.995,54.247,8,50,8 C50,8,47.494,2,39,2L39,2z"/></g></svg>